<svg width="395" height="87" viewBox="0 0 395 87" fill="none" xmlns="http://www.w3.org/2000/svg">
<g clip-path="url(#clip0_48_9)">
<path d="M37.168 26.6118C46.3297 22.2444 57.0733 24.8275 63.2795 32.1856L53.6833 41.566C52.5881 42.6366 52.5881 44.353 53.6833 45.4066C54.2222 45.9333 54.935 46.2052 55.6478 46.2052C56.3605 46.2052 57.0733 45.9333 57.6122 45.4066L66.3392 36.8758L88.6087 81.5177C89.1129 82.5373 89.1477 83.7778 88.6087 84.8654C87.67 86.7517 85.3231 87.5334 83.3934 86.6157L60.1677 75.536L68.7209 67.1752C69.8161 66.1216 69.8161 64.3883 68.7209 63.3347C67.6257 62.2811 65.8698 62.2811 64.792 63.3347L54.8828 73.021L37.1507 64.5582C32.9784 62.57 29.4146 59.2392 27.2241 54.8549C21.9914 44.3699 26.4418 31.7268 37.168 26.6118Z" fill="#F98109"/>
<path d="M21.1569 20.6811C17.767 13.7647 19.5228 5.59085 26.4244 0C35.1688 7.08628 35.5513 18.268 27.7978 25.8131L26.407 27.1726C18.6883 34.7516 7.23195 34.3778 0 25.8301C5.7195 19.0837 14.0814 17.3673 21.1569 20.6811Z" fill="#3F9C10"/>
<path d="M146.824 4.608C140.509 4.608 135.005 5.76 130.312 8.064C125.704 10.2827 121.864 13.2267 118.792 16.896C115.72 20.48 113.416 24.5333 111.88 29.056C110.429 33.5787 109.704 38.0587 109.704 42.496C109.704 47.5307 110.685 52.48 112.648 57.344C114.611 62.1227 117.299 66.3893 120.712 70.144C124.211 73.8133 128.264 76.8 132.872 79.104C137.48 81.3227 142.472 82.432 147.848 82.432C149.384 82.432 151.176 82.2613 153.224 81.92C155.357 81.5787 157.448 80.9387 159.496 80C161.544 78.976 163.421 77.568 165.128 75.776C166.92 73.984 168.285 71.6373 169.224 68.736H170.504V82.944C169.224 82.944 167.859 83.1147 166.408 83.456C165.043 83.7973 163.507 84.1813 161.8 84.608C159.581 85.2053 157.107 85.76 154.376 86.272C151.731 86.784 148.915 87.04 145.928 87.04C138.504 87.04 131.976 85.76 126.344 83.2C120.712 80.64 116.019 77.312 112.264 73.216C108.509 69.12 105.693 64.512 103.816 59.392C101.939 54.1867 101 48.9387 101 43.648C101 38.3573 101.939 33.1093 103.816 27.904C105.693 22.6987 108.552 18.048 112.392 13.952C116.232 9.77067 121.053 6.4 126.856 3.84C132.659 1.28 139.485 0 147.336 0C150.152 0 152.669 0.255999 154.888 0.767998C157.192 1.28 159.24 1.792 161.032 2.304C162.312 2.73067 163.464 3.072 164.488 3.328C165.597 3.49866 166.664 3.584 167.688 3.584V17.792H166.408C165.896 15.1467 164.957 12.9707 163.592 11.264C162.227 9.472 160.605 8.10666 158.728 7.168C156.936 6.22933 154.973 5.58934 152.84 5.248C150.792 4.82133 148.787 4.608 146.824 4.608Z" fill="black"/>
<path d="M210.19 85.76V79.232L209.55 79.872C207.417 82.0053 204.942 83.6693 202.126 84.864C199.395 86.0587 196.067 86.656 192.142 86.656C189.155 86.656 186.595 86.3147 184.462 85.632C182.329 84.9493 180.579 84.0107 179.214 82.816C177.849 81.536 176.825 80.0853 176.142 78.464C175.545 76.8427 175.246 75.136 175.246 73.344C175.246 70.4427 176.014 67.8827 177.55 65.664C179.171 63.4453 181.475 61.4827 184.462 59.776C187.449 58.0693 191.075 56.5333 195.342 55.168C199.694 53.7173 204.643 52.3093 210.19 50.944C210.019 47.616 209.337 44.928 208.142 42.88C206.947 40.832 205.539 39.2533 203.918 38.144C202.297 36.9493 200.59 36.1813 198.798 35.84C197.006 35.4133 195.47 35.2 194.19 35.2C191.971 35.2 190.009 35.5413 188.302 36.224C186.681 36.9067 185.23 37.8027 183.95 38.912C182.755 39.936 181.731 41.088 180.878 42.368C180.025 43.5627 179.342 44.7147 178.83 45.824H177.678V36.48C178.361 36.3947 179.001 36.1813 179.598 35.84C180.195 35.4987 180.921 35.1573 181.774 34.816C183.054 34.304 184.803 33.5787 187.022 32.64C189.241 31.616 192.355 31.104 196.366 31.104C201.059 31.104 204.857 31.7013 207.758 32.896C210.659 34.0907 212.878 35.6693 214.414 37.632C216.035 39.5947 217.102 41.856 217.614 44.416C218.126 46.8907 218.382 49.4507 218.382 52.096V77.44C218.382 79.1467 218.766 80.768 219.534 82.304C220.302 83.7547 221.326 84.48 222.606 84.48V85.76H210.19ZM210.19 73.6V55.296L208.91 55.552C206.862 56.064 204.345 56.7467 201.358 57.6C198.457 58.4533 195.683 59.5627 193.038 60.928C190.393 62.2933 188.131 63.9147 186.254 65.792C184.377 67.6693 183.438 69.8453 183.438 72.32C183.438 75.0507 184.547 77.312 186.766 79.104C188.985 80.896 191.886 81.792 195.47 81.792C198.286 81.792 200.761 81.1947 202.894 80C205.027 78.72 206.99 77.0987 208.782 75.136L210.19 73.6Z" fill="black"/>
<path d="M261.01 41.344C259.986 39.6373 258.919 38.5707 257.81 38.144C256.701 37.7173 255.421 37.504 253.97 37.504C253.031 37.504 252.007 37.7173 250.898 38.144C249.874 38.5707 248.85 39.1253 247.826 39.808C246.802 40.4907 245.778 41.2587 244.754 42.112C243.815 42.88 243.005 43.6053 242.322 44.288V77.568C242.322 78.2507 242.407 78.976 242.578 79.744C242.749 80.512 243.005 81.28 243.346 82.048C243.773 82.7307 244.199 83.328 244.626 83.84C245.138 84.2667 245.735 84.48 246.418 84.48V85.76H229.778V84.48C230.375 84.48 230.93 84.2667 231.442 83.84C231.954 83.328 232.381 82.7307 232.722 82.048C233.149 81.28 233.447 80.512 233.618 79.744C233.789 78.976 233.874 78.2507 233.874 77.568V41.856C233.874 40.6613 233.49 39.4667 232.722 38.272C231.954 37.0773 230.845 36.3093 229.394 35.968V34.944L242.322 31.104V38.784C243.09 37.8453 243.901 36.9493 244.754 36.096C245.607 35.1573 246.546 34.3467 247.57 33.664C248.679 32.896 249.874 32.2987 251.154 31.872C252.434 31.36 253.927 31.104 255.634 31.104C256.829 31.104 258.365 31.36 260.242 31.872C262.119 32.384 263.655 32.9387 264.85 33.536L261.01 41.344Z" fill="black"/>
<path d="M299.015 41.344C297.991 39.6373 296.924 38.5707 295.815 38.144C294.706 37.7173 293.426 37.504 291.975 37.504C291.036 37.504 290.012 37.7173 288.903 38.144C287.879 38.5707 286.855 39.1253 285.831 39.808C284.807 40.4907 283.783 41.2587 282.759 42.112C281.82 42.88 281.01 43.6053 280.327 44.288V77.568C280.327 78.2507 280.412 78.976 280.583 79.744C280.754 80.512 281.01 81.28 281.351 82.048C281.778 82.7307 282.204 83.328 282.631 83.84C283.143 84.2667 283.74 84.48 284.423 84.48V85.76H267.783V84.48C268.38 84.48 268.935 84.2667 269.447 83.84C269.959 83.328 270.386 82.7307 270.727 82.048C271.154 81.28 271.452 80.512 271.623 79.744C271.794 78.976 271.879 78.2507 271.879 77.568V41.856C271.879 40.6613 271.495 39.4667 270.727 38.272C269.959 37.0773 268.85 36.3093 267.399 35.968V34.944L280.327 31.104V38.784C281.095 37.8453 281.906 36.9493 282.759 36.096C283.612 35.1573 284.551 34.3467 285.575 33.664C286.684 32.896 287.879 32.2987 289.159 31.872C290.439 31.36 291.932 31.104 293.639 31.104C294.834 31.104 296.37 31.36 298.247 31.872C300.124 32.384 301.66 32.9387 302.855 33.536L299.015 41.344Z" fill="black"/>
<path d="M332.668 86.656C328.401 86.656 324.561 85.9733 321.148 84.608C317.735 83.1573 314.791 81.2373 312.316 78.848C309.927 76.3733 308.049 73.472 306.684 70.144C305.404 66.816 304.764 63.1893 304.764 59.264C304.764 55.0827 305.489 51.2853 306.94 47.872C308.391 44.3733 310.396 41.3867 312.956 38.912C315.516 36.4373 318.545 34.5173 322.044 33.152C325.543 31.7867 329.34 31.104 333.436 31.104C337.532 31.104 341.287 31.7867 344.7 33.152C348.113 34.432 351.057 36.2667 353.532 38.656C356.007 41.0453 357.927 43.904 359.292 47.232C360.657 50.4747 361.34 54.0587 361.34 57.984C361.34 61.6533 360.7 65.2373 359.42 68.736C358.225 72.1493 356.391 75.1787 353.916 77.824C351.527 80.4693 348.54 82.6027 344.956 84.224C341.457 85.8453 337.361 86.656 332.668 86.656ZM331.9 35.328C328.828 35.4987 326.097 36.2667 323.708 37.632C321.404 38.912 319.441 40.6187 317.82 42.752C316.284 44.8 315.089 47.1467 314.236 49.792C313.468 52.4373 313.084 55.1253 313.084 57.856C313.084 61.0133 313.553 64.0853 314.492 67.072C315.516 69.9733 316.924 72.576 318.716 74.88C320.593 77.184 322.812 79.0187 325.372 80.384C327.932 81.7493 330.791 82.432 333.948 82.432C337.105 82.432 339.879 81.7493 342.268 80.384C344.743 79.0187 346.791 77.2693 348.412 75.136C350.033 72.9173 351.228 70.4427 351.996 67.712C352.849 64.9813 353.276 62.2507 353.276 59.52C353.276 56.704 352.849 53.888 351.996 51.072C351.143 48.1707 349.82 45.568 348.028 43.264C346.236 40.8747 343.975 38.9547 341.244 37.504C338.599 36.0533 335.484 35.328 331.9 35.328Z" fill="black"/>
<path d="M380.212 36.352V67.2C380.212 69.4187 380.255 71.424 380.34 73.216C380.425 75.008 380.639 76.5013 380.98 77.696C381.321 78.8907 381.833 79.8293 382.516 80.512C383.199 81.1093 384.137 81.408 385.332 81.408C387.124 81.408 388.788 80.5547 390.324 78.848C391.945 77.1413 392.969 75.0933 393.396 72.704H394.548V82.048C393.78 82.048 393.14 82.304 392.628 82.816C391.945 83.4133 390.964 84.0533 389.684 84.736C388.489 85.4187 386.655 85.76 384.18 85.76C381.108 85.76 378.719 85.1627 377.012 83.968C375.305 82.7733 374.068 81.1947 373.3 79.232C372.532 77.2693 372.063 75.0933 371.892 72.704C371.807 70.3147 371.764 67.8827 371.764 65.408V36.352H364.596V32H371.764V20.608C371.764 19.1573 371.551 17.8347 371.124 16.64C370.783 15.36 369.545 14.6773 367.412 14.592V13.312L380.212 9.216V32H394.548V36.352H380.212Z" fill="black"/>
</g>
<defs>
<clipPath id="clip0_48_9">
<rect width="395" height="87" fill="white"/>
</clipPath>
</defs>
</svg>
